<svg width="68" height="68" viewBox="0 0 68 68" fill="none" xmlns="http://www.w3.org/2000/svg">
<path fill-rule="evenodd" clip-rule="evenodd" d="M33.5 53C31.567 53 30 51.433 30 49.5V18.5C30 16.567 31.567 15 33.5 15C35.433 15 37 16.567 37 18.5V49.5C37 51.433 35.433 53 33.5 53ZM44.7936 24.8963C45.7601 23.2223 47.9007 22.6487 49.5747 23.6152L64.2972 32.1152C65.0548 32.5526 65.587 33.2305 65.8531 33.9968C66.6868 35.6429 66.0967 37.6727 64.4792 38.6066L49.7568 47.1066C48.0828 48.0731 45.9422 47.4995 44.9757 45.8255C44.0092 44.1515 44.5828 42.0109 46.2568 41.0444L56.0098 35.4135L46.0747 29.6774C44.4007 28.7109 43.8271 26.5704 44.7936 24.8963ZM17.6551 23.7499C19.3291 22.7834 21.4697 23.3569 22.4362 25.031C23.4027 26.705 22.8291 28.8456 21.1551 29.8121L11.22 35.5481L20.973 41.179C22.647 42.1455 23.2206 44.2861 22.2541 45.9601C21.2876 47.6341 19.147 48.2077 17.473 47.2412L2.75058 38.7412C1.13313 37.8074 0.543018 35.7775 1.37677 34.1314C1.64286 33.3651 2.17506 32.6873 2.93265 32.2499L17.6551 23.7499Z" fill="white"/>
</svg>
